# xmcd
#
# Track frame offsets:
#	150
#	24958
#	46600
#	60238
#	84518
#	114775
#	137305
#	168298
#	200463
#	224720
#	247968
#	274255
#	296488
#	327034
#
# Disc length: 4579 seconds
#
# Revision: 0
# Processed by: cddbd v1.4PL0 Copyright (c) Steve Scherf et al.
# Submitted via: EasyCDDAExtractor 4.6.9.1
#
DISCID=b411e10e
DTITLE=Mr.Children - Mr. Children 1996-2000 ∞©[≥q∫Ÿ]
DYEAR=2001
DGENRE=Blues
TTITLE0=¶W«i«Q∆Û∏÷
TTITLE1=™·-Memento-Mori-
TTITLE2=Mirror
TTITLE3=Everything (It's you)
TTITLE4=ALIVE
TTITLE5=«««≥«§«Œ«®«≥«§
TTITLE6=•˙«UÆg«@§Ë«_
TTITLE7=≤◊«v«q«Q∆ÛÆ»
TTITLE8=«Â«Â«Â
TTITLE9=«K«o∆Ú«q
TTITLE10=§f≤√
TTITLE11=NOT FOUND
TTITLE12=Hallelujah
TTITLE13=¿u∆˝∆Í∫q
EXTD=
EXTT0=
EXTT1=
EXTT2=
EXTT3=
EXTT4=
EXTT5=
EXTT6=
EXTT7=
EXTT8=
EXTT9=
EXTT10=
EXTT11=
EXTT12=
EXTT13=
PLAYORDER=
